<?xml version="1.0" encoding="UTF-8" standalone="no"?>
<!-- Created with Inkscape (http://www.inkscape.org/) -->

<svg
   width="157.20303mm"
   height="124.38419mm"
   viewBox="0 0 157.20303 124.38419"
   version="1.1"
   id="svg5"
   inkscape:version="1.1 (c4e8f9ed74, 2021-05-24)"
   sodipodi:docname="ExpiredMentality.svg"
   xmlns:inkscape="http://www.inkscape.org/namespaces/inkscape"
   xmlns:sodipodi="http://sodipodi.sourceforge.net/DTD/sodipodi-0.dtd"
   xmlns="http://www.w3.org/2000/svg"
   xmlns:svg="http://www.w3.org/2000/svg">
  <sodipodi:namedview
     id="namedview7"
     pagecolor="#ffffff"
     bordercolor="#666666"
     borderopacity="1.0"
     inkscape:pageshadow="2"
     inkscape:pageopacity="0.0"
     inkscape:pagecheckerboard="0"
     inkscape:document-units="mm"
     showgrid="false"
     inkscape:zoom="1.0406414"
     inkscape:cx="303.17842"
     inkscape:cy="233.02937"
     inkscape:window-width="1920"
     inkscape:window-height="1011"
     inkscape:window-x="0"
     inkscape:window-y="32"
     inkscape:window-maximized="1"
     inkscape:current-layer="layer1"
     fit-margin-top="0"
     fit-margin-left="0"
     fit-margin-right="0"
     fit-margin-bottom="0" />
  <defs
     id="defs2" />
  <g
     inkscape:label="Layer 1"
     inkscape:groupmode="layer"
     id="layer1"
     transform="translate(-23.318165,-53.162427)">
    <path
       id="path3400"
       style="fill:#f54cff;fill-opacity:1;stroke:#000000;stroke-width:18.665;stroke-linejoin:round;stroke-miterlimit:4;stroke-dasharray:none;stroke-opacity:1;paint-order:markers stroke fill"
       d="m 77.01943,62.494927 c 14.060772,1.6e-5 20.167599,11.398581 20.167619,25.459428 -0.006,0.284896 -0.0166,0.569672 -0.032,0.85421 0.0483,0.248872 0.077,0.505016 0.077,0.768429 v 59.571046 c 0,2.20791 -1.777361,3.9858 -3.985266,3.9858 H 59.683109 c -0.16875,0 -0.334006,-0.0139 -0.497116,-0.0341 -0.35831,0.021 -0.71703,0.0344 -1.07591,0.0403 -14.06084,-1e-5 -25.459408,-3.99024 -25.459418,-18.05109 0.0257,-5.1883 4.281858,-10.24489 7.261048,-14.49266 -1.89019,-3.62387 -3.93846,-9.76622 -3.94446,-13.85342 0.79282,-10.317344 6.01226,-17.630005 18.44486,-19.372458 1.62534,-12.708459 9.795409,-24.875223 22.607357,-24.875485 z"
       sodipodi:nodetypes="cccsssscccccccc" />
    <path
       style="fill:none;stroke:#000000;stroke-width:8;stroke-linecap:butt;stroke-linejoin:miter;stroke-miterlimit:4;stroke-dasharray:none;stroke-opacity:1"
       d="M 65.565628,111.73861 87.273918,90.03026"
       id="path3646" />
    <path
       style="fill:none;stroke:#000000;stroke-width:8;stroke-linecap:butt;stroke-linejoin:miter;stroke-miterlimit:4;stroke-dasharray:none;stroke-opacity:1"
       d="M 87.273918,111.73861 65.565628,90.03026"
       id="path3728" />
    <path
       style="fill:none;stroke:#000000;stroke-width:8;stroke-linecap:butt;stroke-linejoin:miter;stroke-miterlimit:4;stroke-dasharray:none;stroke-opacity:1"
       d="M 97.439002,137.32933 H 65.54096 l -9.359666,-9.35967"
       id="path4535" />
    <path
       id="path4697"
       style="fill:#f54cff;fill-opacity:1;stroke:#000000;stroke-width:18.665;stroke-linejoin:round;stroke-miterlimit:4;stroke-dasharray:none;stroke-opacity:1;paint-order:markers stroke fill"
       d="m 126.81973,62.494927 c -14.06086,1.6e-5 -20.16776,11.398581 -20.16778,25.459428 0.006,0.284896 0.0166,0.569672 0.032,0.85421 -0.0483,0.248872 -0.077,0.505016 -0.077,0.768429 v 59.571046 c 0,2.20791 1.77738,3.9858 3.98531,3.9858 h 33.56389 c 0.16876,0 0.33401,-0.0139 0.49712,-0.0341 0.35832,0.021 0.71704,0.0344 1.07592,0.0403 14.06092,-1e-5 25.4595,-3.99024 25.45951,-18.05109 -0.0257,-5.1883 -4.28186,-10.24489 -7.26105,-14.49266 1.89019,-3.62387 3.93846,-9.76622 3.94446,-13.85342 -0.79282,-10.317344 -6.01226,-17.630005 -18.44493,-19.372458 -1.62535,-12.708459 -9.79546,-24.875223 -22.60749,-24.875485 z"
       sodipodi:nodetypes="cccsssscccccccc" />
    <path
       style="fill:none;stroke:#000000;stroke-width:8;stroke-linecap:butt;stroke-linejoin:miter;stroke-miterlimit:4;stroke-dasharray:none;stroke-opacity:1"
       d="M 138.2736,111.73861 116.56519,90.03026"
       id="path4699" />
    <path
       style="fill:none;stroke:#000000;stroke-width:8;stroke-linecap:butt;stroke-linejoin:miter;stroke-miterlimit:4;stroke-dasharray:none;stroke-opacity:1"
       d="M 116.56519,111.73861 138.2736,90.03026"
       id="path4701" />
    <path
       style="fill:none;stroke:#000000;stroke-width:8;stroke-linecap:butt;stroke-linejoin:miter;stroke-miterlimit:4;stroke-dasharray:none;stroke-opacity:1;paint-order:normal"
       d="m 106.39998,137.32933 h 31.89829 l 9.35972,-9.35967"
       id="path4703" />
    <path
       id="rect4755"
       style="fill:#ff0000;fill-opacity:1;stroke:#000000;stroke-width:15.6;stroke-linejoin:round;stroke-miterlimit:4;stroke-dasharray:none;paint-order:markers stroke fill"
       d="m 127.72377,141.29516 v 24.46604 c 0,2.20792 -1.7775,3.98541 -3.98542,3.98541 h -12.77432 c -2.20792,0 -3.93768,-1.77801 -3.98542,-3.98541 v -24.46604 z"
       sodipodi:nodetypes="csssscc" />
    <path
       style="fill:none;stroke:#000000;stroke-width:8.92791;stroke-linecap:butt;stroke-linejoin:miter;stroke-miterlimit:4;stroke-dasharray:none;stroke-opacity:1"
       d="m 117.34202,140.71894 v 13.87471"
       id="path7199" />
  </g>
</svg>
