<?xml version="1.0" encoding="UTF-8" standalone="no"?>
<svg
   xmlns:osb="http://www.openswatchbook.org/uri/2009/osb"
   xmlns:dc="http://purl.org/dc/elements/1.1/"
   xmlns:cc="http://creativecommons.org/ns#"
   xmlns:rdf="http://www.w3.org/1999/02/22-rdf-syntax-ns#"
   xmlns:svg="http://www.w3.org/2000/svg"
   xmlns="http://www.w3.org/2000/svg"
   xmlns:xlink="http://www.w3.org/1999/xlink"
   xmlns:sodipodi="http://sodipodi.sourceforge.net/DTD/sodipodi-0.dtd"
   xmlns:inkscape="http://www.inkscape.org/namespaces/inkscape"
   inkscape:version="0.92.4 (5da689c313, 2019-01-14)"
   sodipodi:docname="ic_shortcut_compose.svg"
   width="512"
   height="512"
   version="1.1"
   viewBox="0 0 135.46666 135.46666"
   id="svg181"
   inkscape:export-filename="/home/a1ba/projects/Tusky/app/src/main/ic_shortcut_compose.png"
   inkscape:export-xdpi="96"
   inkscape:export-ydpi="96">
  <sodipodi:namedview
     pagecolor="#ffffff"
     bordercolor="#666666"
     borderopacity="1"
     objecttolerance="10"
     gridtolerance="10"
     guidetolerance="10"
     inkscape:pageopacity="0"
     inkscape:pageshadow="2"
     inkscape:window-width="1876"
     inkscape:window-height="1051"
     id="namedview4579"
     showgrid="false"
     inkscape:measure-start="140.54,184.424"
     inkscape:measure-end="499.461,-175.02"
     inkscape:zoom="1.3534466"
     inkscape:cx="295.41644"
     inkscape:cy="201.83007"
     inkscape:window-x="44"
     inkscape:window-y="0"
     inkscape:window-maximized="1"
     inkscape:current-layer="g173"
     inkscape:snap-global="true"
     inkscape:snap-bbox="true"
     inkscape:bbox-paths="false"
     inkscape:bbox-nodes="false"
     inkscape:snap-bbox-edge-midpoints="false"
     inkscape:snap-bbox-midpoints="true"
     inkscape:snap-object-midpoints="true" />
  <metadata
     id="metadata185">
    <rdf:RDF>
      <cc:Work
         rdf:about="">
        <dc:format>image/svg+xml</dc:format>
        <dc:type
           rdf:resource="http://purl.org/dc/dcmitype/StillImage" />
        <dc:title />
      </cc:Work>
    </rdf:RDF>
  </metadata>
  <defs
     id="defs147">
    <linearGradient
       id="linearGradient5474"
       osb:paint="gradient">
      <stop
         style="stop-color:#000000;stop-opacity:1;"
         offset="0"
         id="stop5470" />
      <stop
         style="stop-color:#000000;stop-opacity:0;"
         offset="1"
         id="stop5472" />
    </linearGradient>
    <marker
       inkscape:stockid="Arrow1Sstart"
       orient="auto"
       refY="0.0"
       refX="0.0"
       id="Arrow1Sstart"
       style="overflow:visible"
       inkscape:isstock="true">
      <path
         id="path4956"
         d="M 0.0,0.0 L 5.0,-5.0 L -12.5,0.0 L 5.0,5.0 L 0.0,0.0 z "
         style="fill-rule:evenodd;stroke:#000000;stroke-width:1pt;stroke-opacity:1;fill:#000000;fill-opacity:1"
         transform="scale(0.2) translate(6,0)" />
    </marker>
    <marker
       inkscape:stockid="Arrow1Mstart"
       orient="auto"
       refY="0.0"
       refX="0.0"
       id="Arrow1Mstart"
       style="overflow:visible"
       inkscape:isstock="true">
      <path
         id="path4950"
         d="M 0.0,0.0 L 5.0,-5.0 L -12.5,0.0 L 5.0,5.0 L 0.0,0.0 z "
         style="fill-rule:evenodd;stroke:#000000;stroke-width:1pt;stroke-opacity:1;fill:#000000;fill-opacity:1"
         transform="scale(0.4) translate(10,0)" />
    </marker>
    <marker
       inkscape:stockid="Arrow1Lstart"
       orient="auto"
       refY="0.0"
       refX="0.0"
       id="Arrow1Lstart"
       style="overflow:visible"
       inkscape:isstock="true">
      <path
         id="path4944"
         d="M 0.0,0.0 L 5.0,-5.0 L -12.5,0.0 L 5.0,5.0 L 0.0,0.0 z "
         style="fill-rule:evenodd;stroke:#000000;stroke-width:1pt;stroke-opacity:1;fill:#000000;fill-opacity:1"
         transform="scale(0.8) translate(12.5,0)" />
    </marker>
    <marker
       inkscape:stockid="Tail"
       orient="auto"
       refY="0.0"
       refX="0.0"
       id="Tail"
       style="overflow:visible"
       inkscape:isstock="true">
      <g
         id="g4992"
         transform="scale(-1.2)"
         style="stroke:#000000;stroke-opacity:1;fill:#000000;fill-opacity:1">
        <path
           id="path4980"
           d="M -3.8048674,-3.9585227 L 0.54352094,0"
           style="fill:#000000;fill-rule:evenodd;stroke:#000000;stroke-width:0.8;stroke-linecap:round;stroke-opacity:1;fill-opacity:1" />
        <path
           id="path4982"
           d="M -1.2866832,-3.9585227 L 3.0617053,0"
           style="fill:#000000;fill-rule:evenodd;stroke:#000000;stroke-width:0.8;stroke-linecap:round;stroke-opacity:1;fill-opacity:1" />
        <path
           id="path4984"
           d="M 1.3053582,-3.9585227 L 5.6537466,0"
           style="fill:#000000;fill-rule:evenodd;stroke:#000000;stroke-width:0.8;stroke-linecap:round;stroke-opacity:1;fill-opacity:1" />
        <path
           id="path4986"
           d="M -3.8048674,4.1775838 L 0.54352094,0.21974226"
           style="fill:#000000;fill-rule:evenodd;stroke:#000000;stroke-width:0.8;stroke-linecap:round;stroke-opacity:1;fill-opacity:1" />
        <path
           id="path4988"
           d="M -1.2866832,4.1775838 L 3.0617053,0.21974226"
           style="fill:#000000;fill-rule:evenodd;stroke:#000000;stroke-width:0.8;stroke-linecap:round;stroke-opacity:1;fill-opacity:1" />
        <path
           id="path4990"
           d="M 1.3053582,4.1775838 L 5.6537466,0.21974226"
           style="fill:#000000;fill-rule:evenodd;stroke:#000000;stroke-width:0.8;stroke-linecap:round;stroke-opacity:1;fill-opacity:1" />
      </g>
    </marker>
    <inkscape:perspective
       sodipodi:type="inkscape:persp3d"
       inkscape:vp_x="0 : 67.73333 : 1"
       inkscape:vp_y="0 : 1000 : 0"
       inkscape:vp_z="102.70585 : 21.702312 : 1"
       inkscape:persp3d-origin="67.73333 : 45.155553 : 1"
       id="perspective359" />
    <linearGradient
       id="c">
      <stop
         id="stop2"
         offset="0" />
      <stop
         id="stop4"
         offset="1"
         stop-opacity="0" />
    </linearGradient>
    <clipPath
       id="g">
      <circle
         id="circle7"
         fill="#2588d0"
         r="112.52"
         cy="125"
         cx="125" />
    </clipPath>
    <clipPath
       id="e">
      <g
         id="g132"
         opacity=".05"
         fill="url(#a)"
         clip-path="url(#g)"
         transform="matrix(.26458 0 0 .26458 7.7244 -29.561)">
        <g
           id="g128"
           stroke-width=".5">
          <path
             id="path10"
             fill="url(#a)"
             d="m98.535 73.473c-1.8371-0.09054-2.2298 0.10241-1.635 0.69722l70.711 70.711c-0.59481-0.59481-0.2021-0.78775 1.635-0.69722z" />
          <path
             id="path12"
             fill="url(#a)"
             d="m96.9 74.17c0.70818 0.70818 2.8162 1.986 5.553 4.0332l70.711 70.711c-2.7368-2.0472-4.8448-3.3251-5.553-4.0332z" />
          <path
             id="path14"
             fill="url(#a)"
             d="m102.45 78.203c2.4807 1.8557 4.9237 4.0232 7.1498 6.2492l70.711 70.711c-2.226-2.226-4.6691-4.3935-7.1498-6.2492z" />
          <path
             id="path16"
             fill="url(#a)"
             d="m109.6 84.452c3.2825 3.2825 6.093 6.6922 7.8561 9.4168l70.711 70.711c-1.7631-2.7246-4.5736-6.1343-7.8561-9.4168z" />
          <path
             id="path18"
             fill="url(#a)"
             d="m117.46 93.869c2.9912 4.6225 5.6692 8.3037 12.262 28.254l70.711 70.711c-6.5925-19.95-9.2705-23.631-12.262-28.254z" />
          <path
             id="path20"
             fill="url(#a)"
             d="m129.72 122.12c2.4794 7.5032 5.7538 14.14 6.6211 16.113l70.711 70.711c-0.86733-1.9736-4.1417-8.6101-6.6211-16.113z" />
          <path
             id="path22"
             fill="url(#a)"
             d="m136.34 138.24 1.3476 3.0059 70.711 70.711-1.3476-3.0059z" />
          <path
             id="path24"
             fill="url(#a)"
             d="m137.69 141.24c-0.0653 0.0814-0.11927 0.14322-0.18554 0.22656l70.711 70.711c0.0663-0.0833 0.12024-0.14516 0.18554-0.22656z" />
          <path
             id="path26"
             fill="url(#a)"
             d="m137.5 141.47-3.4395 3.0098 70.711 70.711 3.4395-3.0098z" />
          <path
             id="path28"
             fill="url(#a)"
             d="m134.06 144.48c-5.5481 5.7637-16.033 11.691-24.285 13.729l70.711 70.711c8.2524-2.0372 18.737-7.9648 24.285-13.729z" />
          <path
             id="path30"
             fill="url(#a)"
             d="m109.78 158.21c-6.3614 1.5706-21.301 1.1651-27.809 0.0137l70.711 70.711c6.5077 1.1514 21.447 1.5569 27.809-0.0137z" />
          <path
             id="path32"
             fill="url(#a)"
             d="m81.971 158.22c-7.8527-1.3894-14.205-5.074-19.134-10.002l70.711 70.711c4.9282 4.9282 11.281 8.6128 19.134 10.002z" />
          <path
             id="path34"
             fill="url(#a)"
             d="m62.837 148.22c-6.1069-6.1069-10.026-14.123-11.902-22.049l70.711 70.711c1.8752 7.9251 5.7946 15.942 11.902 22.049z" />
          <path
             id="path36"
             fill="url(#a)"
             d="m50.936 126.17c-1.5987-9.5426 0.52116-16.959 1.6895-21.707l70.711 70.711c-1.1683 4.7477-3.2882 12.164-1.6894 21.707z" />
          <path
             id="path38"
             fill="url(#a)"
             d="m52.625 104.46c2.6637-10.825 9.7356-20.465 18.479-26.402l70.711 70.711c-8.7429 5.9372-15.815 15.578-18.479 26.402z" />
          <path
             id="path40"
             fill="url(#a)"
             d="m71.104 78.061c3.0009-2.0378 4.6792-2.7066 4.4597-2.9261l70.711 70.711c0.21947 0.21947-1.4588 0.88834-4.4597 2.9261z" />
          <path
             id="path42"
             fill="url(#a)"
             d="m75.563 75.134c-0.11026-0.11026-0.69947-0.10709-1.8406-0.10709l70.711 70.711c1.1411 0 1.7303-3e-3 1.8406 0.10709z" />
          <path
             id="path44"
             fill="url(#a)"
             d="m73.723 75.027c-3.9668 0-10.077 2.6389-14.275 6.0215l70.711 70.711c4.1987-3.3826 10.309-6.0215 14.275-6.0215z" />
          <path
             id="path46"
             fill="url(#a)"
             d="m59.447 81.049c-8.0199 6.461-14.768 15.598-18.961 26.336l70.711 70.711c4.1931-10.738 10.941-19.875 18.961-26.336z" />
          <path
             id="path48"
             fill="url(#a)"
             d="m40.486 107.38c-2.2433 6.6848-2.2747 5.5109-2.418 15.162l70.711 70.711c0.14324-9.6512 0.17463-8.4773 2.418-15.162z" />
          <path
             id="path50"
             fill="url(#a)"
             d="m38.068 122.55c0.37633 6.9829 1.0389 9.3071 3.0723 15.406l70.711 70.711c-2.0333-6.0991-2.6959-8.4234-3.0723-15.406z" />
          <path
             id="path52"
             fill="url(#a)"
             d="m41.141 137.95c2.3472 7.0404 6.2768 13.161 11.343 18.227l70.711 70.711c-5.0663-5.0663-8.9959-11.187-11.343-18.227z" />
          <path
             id="path54"
             fill="url(#a)"
             d="m52.484 156.18c2.9744 2.9744 6.3406 5.5855 10.008 7.806l70.711 70.711c-3.6678-2.2205-7.034-4.8316-10.008-7.806z" />
          <path
             id="path56"
             fill="url(#a)"
             d="m62.492 163.99c4.9985 3.0261 15.324 6.7023 22.098 7.8027l70.711 70.711c-6.7734-1.1005-17.099-4.7766-22.098-7.8027z" />
          <path
             id="path58"
             fill="url(#a)"
             d="m84.59 171.79c1.8904 0.30967 4.992 0.90865 7.8848 1.1875l70.711 70.711c-2.8928-0.27885-5.9944-0.87783-7.8848-1.1875z" />
          <path
             id="path60"
             fill="url(#a)"
             d="m92.475 172.98c12.195 0.94625 15.055-0.32666 24.506-1.8418l70.711 70.711c-9.4508 1.5151-12.311 2.788-24.506 1.8418z" />
          <path
             id="path62"
             fill="url(#a)"
             d="m116.98 171.13c8.5906-2.4983 16.678-7.275 22.934-12.367l70.711 70.711c-6.2561 5.0922-14.343 9.8689-22.934 12.367z" />
          <path
             id="path64"
             fill="url(#a)"
             d="m139.91 158.77 5.7871-4.7168 70.711 70.711-5.7871 4.7168z" />
          <path
             id="path66"
             fill="url(#a)"
             d="m145.7 154.05c0.0891 0.11275 0.1968 0.26762 0.28321 0.375l70.711 70.711c-0.0864-0.10738-0.19411-0.26225-0.28321-0.375z" />
          <path
             id="path68"
             fill="url(#a)"
             d="m145.98 154.43 1.9648 2.0644 70.711 70.711-1.9648-2.0644z" />
          <path
             id="path70"
             fill="url(#a)"
             d="m147.95 156.49c0.29948 0.31455 0.59902 0.62179 0.89884 0.92161l70.711 70.711c-0.29982-0.29982-0.59936-0.60705-0.89884-0.9216z" />
          <path
             id="path72"
             fill="url(#a)"
             d="m148.85 157.41c5.8411 5.8411 11.787 8.8672 19.377 8.303l70.711 70.711c-7.5898 0.56423-13.535-2.4619-19.377-8.303z" />
          <path
             id="path74"
             fill="url(#a)"
             d="m168.22 165.71c7.5551-0.56163 13.041-2.6761 17.49-6.7422l70.711 70.711c-4.4488 4.066-9.9351 6.1806-17.49 6.7422z" />
          <path
             id="path76"
             fill="url(#a)"
             d="m185.71 158.97c4.5132-4.1248 5.5354-6.236 7.6699-12.512l70.711 70.711c-2.1345 6.2758-3.1567 8.3869-7.6699 12.512z" />
          <path
             id="path78"
             fill="url(#a)"
             d="m193.38 146.46c2.9552-8.6889 4.3184-16.193 3.9922-29.721l70.711 70.711c0.32618 13.527-1.0369 21.032-3.9922 29.721z" />
          <path
             id="path80"
             fill="url(#a)"
             d="m197.38 116.74c-0.33294-13.818-1.6567-19.14-5.4434-23.453l70.711 70.711c3.7867 4.3128 5.1104 9.6355 5.4434 23.453z" />
          <path
             id="path82"
             fill="url(#a)"
             d="m191.93 93.287c-0.0959-0.10288-0.19218-0.20269-0.28888-0.2994l70.711 70.711c0.0967 0.0967 0.19301 0.19652 0.28888 0.2994z" />
          <path
             id="path84"
             fill="url(#a)"
             d="m191.64 92.988c-3.0781-3.0781-6.553-3.0044-8.5724 1.8287l70.711 70.711c2.0194-4.8331 5.4943-4.9068 8.5724-1.8287z" />
          <path
             id="path86"
             fill="url(#a)"
             d="m183.07 94.816c-0.79737 1.9089-0.78178 2.91 0.11132 6.918l70.711 70.711c-0.8931-4.008-0.90869-5.0091-0.11132-6.918z" />
          <path
             id="path88"
             fill="url(#a)"
             d="m183.18 101.73c1.6289 7.3102 1.7837 25.828 0.45313 32.072l70.711 70.711c1.3306-6.2445 1.1758-24.762-0.45313-32.072z" />
          <path
             id="path90"
             fill="url(#a)"
             d="m183.64 133.81c-2.7904 13.095-11.463 17.859-22.207 12.49l70.711 70.711c10.744 5.3688 19.417 0.60451 22.207-12.49z" />
          <path
             id="path92"
             fill="url(#a)"
             d="m161.43 146.3c-2.4274-1.213-3.8861-1.9048-5.748-3.5762l70.711 70.711c1.862 1.6714 3.3206 2.3632 5.748 3.5762z" />
          <path
             id="path94"
             fill="url(#a)"
             d="m155.68 142.72c-0.18578-0.19582-0.32768-0.35348-0.50391-0.54101l70.711 70.711c0.17623 0.18753 0.31813 0.34519 0.50391 0.54101z" />
          <path
             id="path96"
             fill="url(#a)"
             d="m155.18 142.18c1.047-1.7899 1.5781-3.0116 2.7754-4.9883l70.711 70.711c-1.1973 1.9767-1.7284 3.1984-2.7754 4.9883z" />
          <path
             id="path98"
             fill="url(#a)"
             d="m157.95 137.19c4.9715-8.2077 9.7196-21.436 11.604-32.795l70.711 70.711c-1.8839 11.359-6.632 24.587-11.604 32.795z" />
          <path
             id="path100"
             fill="url(#a)"
             d="m169.56 104.4c1.1273-6.797 0.81713-9.1729-0.83126-10.821l70.711 70.711c1.6484 1.6484 1.9586 4.0243 0.83126 10.821z" />
          <path
             id="path102"
             fill="url(#a)"
             d="m168.73 93.575c-0.32731-0.32731-0.70738-0.62594-1.1394-0.92479l70.711 70.711c0.43206 0.29886 0.81213 0.59748 1.1394 0.92479z" />
          <path
             id="path104"
             fill="url(#a)"
             d="m167.59 92.65c-2.0094-0.98322-2.8331-1.0491-4.9531-0.39844l70.711 70.711c2.12-0.65064 2.9438-0.58478 4.9531 0.39844z" />
          <path
             id="path106"
             fill="url(#a)"
             d="m162.63 92.252c-1.3988 0.42933-3.0221 1.3082-3.6055 1.9531l70.711 70.711c0.58337-0.64492 2.2067-1.5238 3.6055-1.9531z" />
          <path
             id="path108"
             fill="url(#a)"
             d="m159.03 94.205c-0.58363 0.64492-1.9734 4.6467-3.0879 8.8945l70.711 70.711c1.1145-4.2479 2.5043-8.2496 3.0879-8.8945z" />
          <path
             id="path110"
             fill="url(#a)"
             d="m155.94 103.1c-1.1144 4.2479-2.7555 9.2858-3.6465 11.193l70.711 70.711c0.89102-1.9076 2.532-6.9455 3.6465-11.193z" />
          <path
             id="path112"
             fill="url(#a)"
             d="m152.29 114.29c-0.89099 1.9076-1.8493 4.2376-2.1309 5.1777l70.711 70.711c0.28157-0.94013 1.2399-3.2702 2.1309-5.1777z" />
          <path
             id="path114"
             fill="url(#a)"
             d="m150.16 119.47c-0.28161 0.94013-1.2853 3.2472-2.2305 5.127l70.711 70.711c0.94515-1.8798 1.9489-4.1868 2.2305-5.127z" />
          <path
             id="path116"
             fill="url(#a)"
             d="m147.93 124.6-2 4.0059 70.711 70.711 2-4.0059z" />
          <path
             id="path118"
             fill="url(#a)"
             d="m145.93 128.6-1.1016-2.5469 70.711 70.711 1.1016 2.5469z" />
          <path
             id="path120"
             fill="url(#a)"
             d="m144.83 126.06c-0.50786-1.1277-2.6738-6.8816-5.1504-12.898l70.711 70.711c2.4766 6.0168 4.6425 11.771 5.1504 12.898z" />
          <path
             id="path122"
             fill="url(#a)"
             d="m139.68 113.16c-5.7036-13.857-11.141-23.408-17.401-29.668l70.711 70.711c6.2598 6.2598 11.697 15.811 17.401 29.668z" />
          <path
             id="path124"
             fill="url(#a)"
             d="m122.28 83.49c-6.0835-6.0835-12.944-9.058-21.58-9.8534l70.711 70.711c8.6358 0.79538 15.496 3.7699 21.58 9.8534z" />
          <path
             id="path126"
             fill="url(#a)"
             d="m100.7 73.637c-0.8718-0.08029-1.5892-0.13573-2.1641-0.16406l70.711 70.711c0.57491 0.0283 1.2923 0.0838 2.1641 0.16407z" />
        </g>
        <path
           id="path130"
           fill="url(#a)"
           d="m98.535 73.473c-4.0243-0.19833-1.1175 0.96369 3.918 4.7305 6.1387 4.592 12.047 11.094 15.006 15.666 2.9912 4.6225 5.6692 8.3037 12.262 28.254 2.4794 7.5032 5.7538 14.14 6.6211 16.113l1.3476 3.0059c-0.0653 0.0814-0.11927 0.14322-0.18554 0.22656l-3.4395 3.0098c-5.5481 5.7637-16.033 11.691-24.285 13.729-6.3614 1.5706-21.301 1.1651-27.809 0.0137-17.584-3.1111-27.647-17.73-31.035-32.051-1.5987-9.5426 0.52116-16.959 1.6895-21.707 2.6637-10.825 9.7356-20.465 18.479-26.402 4.5085-3.0615 6.0316-3.0332 2.6191-3.0332-3.9668 0-10.077 2.6389-14.275 6.0215-8.0199 6.461-14.768 15.598-18.961 26.336-2.2433 6.6848-2.2747 5.5109-2.418 15.162 0.37633 6.9829 1.0389 9.3071 3.0723 15.406 3.7252 11.174 11.436 20.03 21.352 26.033 4.9985 3.0261 15.324 6.7023 22.098 7.8027 1.8904 0.30967 4.992 0.90865 7.8848 1.1875 12.195 0.94625 15.055-0.32666 24.506-1.8418 8.5906-2.4983 16.678-7.275 22.934-12.367l5.7871-4.7168c0.0891 0.11275 0.1968 0.26762 0.28321 0.375l1.9648 2.0644c6.134 6.4426 12.296 9.8178 20.275 9.2246 7.5551-0.56163 13.041-2.6761 17.49-6.7422 4.5132-4.1248 5.5354-6.236 7.6699-12.512 2.9552-8.6889 4.3184-16.193 3.9922-29.721-0.33294-13.818-1.6567-19.14-5.4434-23.453-3.1472-3.3774-6.7785-3.4556-8.8613 1.5293-0.79737 1.9089-0.78178 2.91 0.11132 6.918 1.6289 7.3102 1.7837 25.828 0.45313 32.072-2.7904 13.095-11.463 17.859-22.207 12.49-2.4274-1.213-3.8861-1.9048-5.748-3.5762-0.18578-0.19582-0.32768-0.35348-0.50391-0.54101 1.047-1.7899 1.5781-3.0116 2.7754-4.9883 4.9715-8.2077 9.7196-21.436 11.604-32.795 1.3511-8.1466 0.63728-9.9421-1.9707-11.746-2.0094-0.98322-2.8331-1.0491-4.9531-0.39844-1.3988 0.42933-3.0221 1.3082-3.6055 1.9531-0.58363 0.64492-1.9734 4.6467-3.0879 8.8945-1.1144 4.2479-2.7555 9.2858-3.6465 11.193-0.89099 1.9076-1.8493 4.2376-2.1309 5.1777-0.28161 0.94013-1.2853 3.2472-2.2305 5.127l-2 4.0059-1.1016-2.5469c-0.50786-1.1277-2.6738-6.8816-5.1504-12.898-11.247-27.323-21.459-37.908-38.98-39.522-0.8718-0.080295-1.5892-0.13573-2.1641-0.16406z" />
      </g>
    </clipPath>
    <linearGradient
       xlink:href="#c"
       gradientUnits="userSpaceOnUse"
       y2="210.2"
       y1="153.65"
       x2="201.21"
       x1="146.2"
       id="a" />
    <clipPath
       id="f">
      <circle
         id="circle136"
         opacity=".1"
         clip-path="url(#e)"
         r="29.772"
         cy="2.6396"
         cx="40.292"
         transform="matrix(1.0037 0 0 1.0037 1.3836 -1.2671)" />
    </clipPath>
    <linearGradient
       gradientUnits="userSpaceOnUse"
       y2="22.179"
       y1="6.5707"
       x2="61.309"
       x1="45.701"
       id="b">
      <stop
         id="stop139"
         offset="0" />
      <stop
         id="stop141"
         offset="1"
         stop-opacity="0" />
    </linearGradient>
    <filter
       color-interpolation-filters="sRGB"
       height="1.048"
       width="1.048"
       y="-.024"
       x="-.024"
       id="d">
      <feGaussianBlur
         id="feGaussianBlur144"
         stdDeviation="13.532652" />
    </filter>
    <clipPath
       clipPathUnits="userSpaceOnUse"
       id="clipPath4599">
      <circle
         cx="725.02002"
         cy="-684.40002"
         id="circle4601"
         style="display:inline;fill:#2588d0;stroke-width:1"
         r="666.01202" />
    </clipPath>
  </defs>
  <g
     style="display:inline"
     id="g177"
     transform="translate(-6.8187185,99.942227)">
    <g
       transform="matrix(0.09375,0,0,0.09375,7.4604,32.24)"
       id="g173"
       style="display:inline">
      <g
         id="g157"
         style="display:inline;fill:#121a24;fill-opacity:1"
         transform="translate(-13.179525,-21.636192)">
        <circle
           transform="matrix(0.98504,0,0,0.98504,29.403,-5.6005)"
           cx="710.14001"
           cy="-672.09003"
           r="676.63"
           id="circle149"
           style="display:inline;opacity:0.36000001;fill:#121a24;fill-opacity:1;filter:url(#d)" />
        <circle
           cx="725.02002"
           cy="-684.40002"
           id="ellipse153"
           style="display:inline;fill:#121a24;fill-opacity:1"
           r="666.01202" />
      </g>
      <g
         id="g1086"
         transform="matrix(38.544874,0,0,37.290702,249.32397,-1153.5455)">
        <path
           id="path1072"
           d="M 3,17.25 V 21 H 6.75 L 17.81,9.94 14.06,6.19 Z M 20.71,7.04 c 0.39,-0.39 0.39,-1.02 0,-1.41 L 18.37,3.29 C 17.98,2.9 17.35,2.9 16.96,3.29 l -1.83,1.83 3.75,3.75 z"
           inkscape:connector-curvature="0"
           style="fill:none;fill-opacity:1;stroke:#d8a070;stroke-opacity:1" />
        <path
           id="path1074"
           d="M 0,0 H 24 V 24 H 0 Z"
           inkscape:connector-curvature="0"
           style="fill:none" />
      </g>
    </g>
  </g>
  <style
     id="style179">.st0{fill:#e0e0e0}.st1{fill:#fff}.st2{clip-path:url(#SVGID_2_);fill:#fbbc05}.st3{clip-path:url(#SVGID_4_);fill:#ea4335}.st4{clip-path:url(#SVGID_6_);fill:#34a853}.st5{clip-path:url(#SVGID_8_);fill:#4285f4}</style>
</svg>
